<?xml version="1.0" standalone="no"?>
<!DOCTYPE svg PUBLIC "-//W3C//DTD SVG 20010904//EN"
 "http://www.w3.org/TR/2001/REC-SVG-20010904/DTD/svg10.dtd">
<svg version="1.0" xmlns="http://www.w3.org/2000/svg"
 width="1321.000000pt" height="147.000000pt" viewBox="0 0 1321.000000 147.000000"
 preserveAspectRatio="xMidYMid meet">

<g transform="translate(0.000000,147.000000) scale(0.100000,-0.100000)"
fill="#000000" stroke="none">
<path d="M30 995 l0 -425 713 -2 712 -3 0 -140 0 -140 -615 -5 c-695 -6 -641
1 -729 -89 -45 -46 -81 -121 -81 -168 l0 -23 855 0 855 0 0 425 0 425 -712 2
-713 3 0 140 0 140 610 5 c691 6 648 0 734 89 45 46 81 121 81 169 l0 22 -855
0 -855 0 0 -425z"/>
<path d="M2880 995 l0 -425 140 0 140 0 0 425 0 425 -140 0 -140 0 0 -425z"/>
<path d="M4310 995 l0 -425 140 0 140 0 0 425 0 425 -140 0 -140 0 0 -425z"/>
<path d="M5730 1392 c0 -46 57 -148 104 -186 76 -63 47 -61 711 -66 l610 -5 3
-55 c7 -115 -28 -192 -101 -219 -19 -7 -243 -11 -678 -11 l-649 0 0 -425 0
-425 140 0 140 0 2 283 3 282 214 3 213 2 282 -285 281 -285 215 0 215 0 -278
278 c-152 152 -277 280 -277 284 0 3 82 8 183 10 207 3 218 7 296 87 78 80 81
99 81 454 l0 307 -855 0 -855 0 0 -28z"/>
<path d="M8580 1280 l0 -140 735 0 c815 0 788 -2 872 66 46 38 103 140 103
186 l0 28 -855 0 -855 0 0 -140z"/>
<path d="M11430 1392 c0 -46 57 -148 104 -187 82 -67 62 -65 747 -65 686 0
673 -1 756 66 46 38 103 140 103 186 l0 28 -855 0 -855 0 0 -28z"/>
<path d="M8580 543 c0 -268 2 -314 17 -357 22 -60 81 -129 137 -159 l41 -22
758 -3 757 -2 0 425 0 425 -570 0 -570 0 0 -22 c0 -75 68 -178 148 -226 l47
-27 330 -5 330 -5 0 -140 0 -140 -510 -3 -510 -2 -45 22 c-70 36 -79 73 -80
336 l0 212 -140 0 -140 0 0 -307z"/>
<path d="M11430 828 c0 -75 68 -178 148 -226 l47 -27 660 0 c747 0 686 -7 774
84 45 46 81 121 81 169 l0 22 -855 0 -855 0 0 -22z"/>
<path d="M2880 258 c0 -75 76 -189 154 -231 l41 -22 660 0 660 0 47 27 c80 48
148 151 148 226 l0 22 -855 0 -855 0 0 -22z"/>
<path d="M11430 258 c0 -75 76 -189 154 -231 l41 -22 660 0 660 0 47 27 c80
48 148 151 148 226 l0 22 -855 0 -855 0 0 -22z"/>
</g>
</svg>
